PathFileType	4	(X/Y/Z)	C:/Users/opensim2020/Desktop/walking_exp_matlab/subject01_walking11_straight_01.trc																																																																																																																																		
DataRate	CameraRate	NumFrames	NumMarkers	Units	OrigDataRate	OrigDataStartFrame	OrigNumFrames																																																																																																																														
100	100	4	44	mm	100	1143	374																																																																																																																														
Frame#	Time	LFHD			RFHD			LBHD			RBHD			C7			T10			CLAV			STRN			RBAK			LSHO			LUPA			LELB			LFRM			LWRA			LWRB			LFIN			RSHO			RUPA			RELB			RFRM			RWRA			RWRB			RFIN			LASI			RASI			LPSI			RPSI			LTHI			LKNE			LTIB			LANK			LHEE			LTOE			RTHI			RKNE			RTIB			RANK			RHEE			RTOE			*39			*40			*41			*42			*43		
		X1	Y1	Z1	X2	Y2	Z2	X3	Y3	Z3	X4	Y4	Z4	X5	Y5	Z5	X6	Y6	Z6	X7	Y7	Z7	X8	Y8	Z8	X9	Y9	Z9	X10	Y10	Z10	X11	Y11	Z11	X12	Y12	Z12	X13	Y13	Z13	X14	Y14	Z14	X15	Y15	Z15	X16	Y16	Z16	X17	Y17	Z17	X18	Y18	Z18	X19	Y19	Z19	X20	Y20	Z20	X21	Y21	Z21	X22	Y22	Z22	X23	Y23	Z23	X24	Y24	Z24	X25	Y25	Z25	X26	Y26	Z26	X27	Y27	Z27	X28	Y28	Z28	X29	Y29	Z29	X30	Y30	Z30	X31	Y31	Z31	X32	Y32	Z32	X33	Y33	Z33	X34	Y34	Z34	X35	Y35	Z35	X36	Y36	Z36	X37	Y37	Z37	X38	Y38	Z38	X39	Y39	Z39	X40	Y40	Z40	X41	Y41	Z41	X42	Y42	Z42	X43	Y43	Z43	X44	Y44	Z44
																																																																																																																																					
234	2.33	100.83311	1669.02026	1380.48523	123.62608	1678.04468	1491.578	0.43301	1597.14685	1399.37671	22.25592	1605.00098	1517.44604	1.64685	1418.50903	1431.78455	-27.08319	1126.77271	1434.3855	147.47484	1354.50281	1427.31116	192.09933	1198.63733	1415.65771	-47.41982	1221.86267	1501.79468	82.42142	1386.60278	1269.60474	75.30251	1203.90039	1181.25317	92.97243	1051.52747	1173.99365	173.23372	965.91333	1155.92883	289.49689	894.79767	1181.94983	243.53844	866.00946	1157.70032	317.15976	825.73804	1149.14319	83.33446	1377.31616	1579.94727	17.16757	1177.59375	1672.67834	13.90269	1053.52734	1675.47546	35.9332	935.43561	1707.87964	114.37622	817.0235	1696.61328	67.55367	818.79401	1731.8512	102.06826	739.23157	1730.58887	134.96635	913.17371	1316.93103	155.75349	928.80719	1532.14734	-45.31412	932.81146	1388.82532	-30.13089	939.22821	1534.198	41.72943	586.7511	1278.09644	1.02195	456.17297	1295.65027	-102.14036	296.5134	1291.41455	-187.74707	93.40874	1347.48938	-235.13623	73.10986	1403.10095	-53.50336	32.33569	1330.26941	172.87013	606.13446	1600.86768	223.01952	457.51645	1571.62195	209.17831	282.13361	1585.75684	223.14795	76.00851	1544.02209	176.65768	34.4197	1495.78064	364.19745	45.012	1538.45288	101.38386	1707.46228	1471.21643	1973.17981	1023.56213	-3101.88501	2012.50061	1022.08673	-3140.77466	NaN	NaN	NaN	NaN	NaN	NaN
235	2.34	107.65287	1669.77075	1383.04407	130.16426	1678.4585	1493.95288	7.02656	1597.78687	1401.80481	28.91802	1605.36658	1519.81897	8.32142	1418.94202	1433.58289	-20.29502	1127.54907	1435.79211	154.29555	1355.23499	1429.37341	198.99091	1199.37915	1417.5481	-40.54654	1222.23975	1503.21936	89.44132	1387.32214	1271.58105	81.82372	1204.64722	1183.19397	98.87026	1052.24548	1176.05835	178.1297	965.82581	1157.75085	293.65244	893.43274	1183.47656	247.37425	865.15594	1159.26038	320.46054	824.01227	1150.55261	89.83115	1377.79822	1581.87952	24.25179	1177.65259	1674.18726	21.45591	1053.73804	1676.86621	43.56848	935.68146	1709.02417	121.99898	817.26941	1697.58997	75.14948	818.90778	1732.62451	109.6944	739.51196	1731.65332	142.42737	913.69391	1318.67676	162.66269	929.48761	1534.021	-37.7682	933.53235	1390.05176	-23.2818	940.2337	1535.60864	50.16285	587.01208	1279.18005	9.76414	456.26141	1296.15613	-96.10916	298.35214	1291.58594	-185.73582	96.67299	1346.83032	-233.50394	77.72045	1402.5293	-53.23245	32.48005	1330.15686	180.27739	606.41937	1601.57935	228.3644	457.27112	1572.38354	212.54456	281.79553	1586.44348	224.06798	75.86367	1544.10388	177.23491	34.95279	1496.16125	364.85364	43.762	1538.79407	107.99871	1708.00879	1473.8208	1973.06848	1023.51697	-3102.02954	2012.52698	1021.95264	-3140.78125	NaN	NaN	NaN	NaN	NaN	NaN
236	2.35	114.10777	1670.57129	1385.46729	136.96275	1679.1554	1496.55884	13.66334	1598.58936	1404.23279	35.61961	1605.94641	1522.22131	15.02943	1419.73462	1435.58545	-13.03535	1127.99121	1437.01343	161.12674	1356.13232	1431.49304	205.91638	1200.20728	1419.5249	-33.6912	1222.81177	1504.74768	96.4209	1388.16296	1273.59851	88.48978	1205.6156	1185.08582	104.68614	1053.0802	1178.23962	182.7935	965.71552	1159.62927	297.63846	891.93445	1185.02051	250.9828	864.28656	1160.75793	323.60004	822.354	1152.13623	96.37717	1378.51196	1583.90613	31.28342	1177.97717	1675.74829	28.91471	1054.17896	1678.30835	51.2364	936.12274	1710.21252	129.78931	817.77893	1698.59082	82.81346	819.41077	1733.69739	117.44511	739.93823	1732.56213	151.0247	914.90442	1321.14783	169.84682	930.29767	1536.10583	-30.17757	934.39569	1391.33057	-16.03121	941.15802	1536.89734	59.10715	587.27905	1280.35767	19.24046	456.30627	1296.45679	-89.561	300.293	1291.67078	-183.51137	100.44561	1346.16284	-231.65863	82.80183	1401.80408	-52.95319	32.50401	1330.05396	187.14699	606.98926	1602.6759	233.45657	457.06836	1573.25916	215.55096	281.42227	1586.9751	224.86545	75.80199	1544.16248	177.00087	35.82325	1496.14856	365.42032	42.54455	1538.47607	114.69386	1708.67468	1476.41589	1973.04944	1023.54706	-3102.02368	2012.4884	1021.91187	-3140.67432	NaN	NaN	NaN	NaN	NaN	NaN
237	2.36	120.84509	1671.49744	1387.94653	143.66093	1679.85681	1498.98645	20.09935	1599.54846	1406.48315	42.30537	1606.6084	1524.54358	21.86231	1420.31567	1437.37769	-6.03178	1128.69189	1438.47388	167.90517	1357.05859	1433.57837	212.9388	1201.17444	1421.65247	-26.71848	1223.36609	1506.3772	103.34245	1389.11218	1275.64355	95.23148	1206.5321	1186.76819	110.32684	1053.77588	1180.38635	187.32651	965.64331	1161.37024	301.3299	890.35754	1186.59668	254.29939	863.45648	1162.21594	326.53381	820.55908	1153.70337	102.9377	1379.35486	1585.87439	38.30838	1178.5105	1677.44238	36.35071	1054.74536	1679.75073	58.91702	936.73566	1711.44238	137.59735	818.44702	1699.60657	90.75108	820.11346	1734.90588	125.30252	740.5332	1733.49365	158.4669	915.7749	1322.79846	176.96561	931.09613	1538.13062	-22.68292	935.37311	1392.69104	-9.10482	942.04254	1538.21191	68.57727	587.46527	1281.35388	29.63308	456.45853	1296.62439	-82.30392	302.28024	1291.61462	-180.81779	104.5293	1345.34155	-229.21669	88.32964	1401.09778	-52.55616	32.58654	1329.98621	193.04683	607.46869	1603.92517	237.94398	456.81104	1574.24402	218.41466	281.23602	1587.58716	225.476	75.61787	1544.1134	177.16794	35.88105	1496.12915	365.966	41.59806	1537.94336	121.42146	1709.41248	1478.94556	1973.0531	1023.3905	-3101.85718	2012.42017	1021.99152	-3140.64478	NaN	NaN	NaN	NaN	NaN	NaN
